<?xml version="1.0" encoding="utf-8"?>
<!-- Generator: Adobe Illustrator 15.1.0, SVG Export Plug-In . SVG Version: 6.00 Build 0)  -->
<!DOCTYPE svg PUBLIC "-//W3C//DTD SVG 1.1//EN" "http://www.w3.org/Graphics/SVG/1.1/DTD/svg11.dtd">
<svg version="1.1" id="Capa_1" xmlns="http://www.w3.org/2000/svg" xmlns:xlink="http://www.w3.org/1999/xlink" x="0px" y="0px"
	 width="45.504px" height="45.506px" viewBox="0 0 45.504 45.506" enable-background="new 0 0 45.504 45.506" xml:space="preserve">
<g>
	<g>
		<path fill="#FFFFFF" d="M29.922,31.45c-1.061,6.213-6.483,10.956-12.994,10.956c-7.268,0-13.182-5.913-13.182-13.183
			c0-6.136,4.212-11.305,9.896-12.769c-0.133-0.87-0.201-1.758-0.201-2.663c0-0.159,0.003-0.318,0.007-0.477
			c-7.311,1.599-12.8,8.124-12.8,15.907c0,8.979,7.304,16.283,16.28,16.283c8.244,0,15.076-6.159,16.14-14.118
			c-0.635,0.069-1.276,0.105-1.929,0.105C30.731,31.493,30.327,31.479,29.922,31.45z"/>
		<path fill="#FFFFFF" d="M42.265,15.852c-1.045-1.065-1.427-2.535-1.146-3.894c0.188-0.914-0.479-1.771-1.391-1.971
			c-1.118-0.246-2.18-0.81-3.04-1.688c-0.862-0.879-1.403-1.952-1.63-3.076c-0.184-0.915-1.023-1.597-1.941-1.427
			c-1.363,0.252-2.824-0.157-3.869-1.222c-0.425-0.433-0.738-0.933-0.943-1.464c-0.35-0.904-1.367-1.334-2.275-0.994
			c-5.979,2.235-10.103,8.281-9.413,15.181c0.68,6.792,6.185,12.317,12.973,13.019c6.832,0.703,12.834-3.31,15.143-9.178
			c0.355-0.904-0.063-1.937-0.967-2.292C43.215,16.631,42.704,16.299,42.265,15.852z M28.47,6.598c0.696,0,1.268,0.566,1.268,1.268
			c0,0.699-0.567,1.268-1.268,1.268S27.2,8.566,27.2,7.866C27.204,7.164,27.77,6.598,28.47,6.598z M29.437,14.497
			c0,0.393-0.317,0.711-0.713,0.711s-0.712-0.318-0.712-0.711c0-0.395,0.316-0.714,0.712-0.714S29.437,14.103,29.437,14.497z
			 M24.047,21.578c-0.356,0-0.647-0.29-0.647-0.647s0.291-0.649,0.647-0.649c0.357,0,0.648,0.292,0.648,0.649
			C24.697,21.288,24.406,21.578,24.047,21.578z M23.4,16.566c-1.146,0-2.074-0.928-2.074-2.074c0-1.146,0.929-2.072,2.074-2.072
			c1.146,0,2.074,0.927,2.074,2.072C25.474,15.638,24.543,16.566,23.4,16.566z M23.667,9.465c-0.999,0-1.807-0.81-1.807-1.808
			s0.809-1.807,1.807-1.807c0.996,0,1.808,0.809,1.808,1.807S24.665,9.465,23.667,9.465z M29.038,26.026
			c-1.252,0-2.268-1.017-2.268-2.269c0-1.25,1.016-2.265,2.268-2.265s2.268,1.015,2.268,2.265
			C31.304,25.011,30.29,26.026,29.038,26.026z M34.736,19.857c-0.929,0-1.68-0.751-1.68-1.678c0-0.928,0.751-1.678,1.68-1.678
			s1.679,0.75,1.679,1.678C36.415,19.106,35.663,19.857,34.736,19.857z M35.215,12.367c-0.813,0-1.473-0.657-1.473-1.47
			s0.66-1.473,1.473-1.473s1.473,0.659,1.473,1.473C36.688,11.71,36.029,12.367,35.215,12.367z"/>
		<circle fill="#FFFFFF" cx="12.327" cy="22.897" r="1.966"/>
		<circle fill="#FFFFFF" cx="8.229" cy="30.716" r="1.492"/>
		<circle fill="#FFFFFF" cx="16.978" cy="31.078" r="2.685"/>
		<circle fill="#FFFFFF" cx="12.529" cy="37.294" r="2.027"/>
		<circle fill="#FFFFFF" cx="24.021" cy="35.23" r="2.161"/>
	</g>
</g>
</svg>
